# Blender v2.79 (sub 0) OBJ File: ''
# www.blender.org
mtllib diana.mtl
o Cylinder
v -0.095853 -0.000000 -1.000000
v 0.095853 -0.000000 -0.183097
v -0.095853 -0.195090 -0.980785
v 0.095853 -0.035720 -0.179579
v -0.095853 -0.382683 -0.923880
v 0.095853 -0.070068 -0.169159
v -0.095853 -0.555570 -0.831470
v 0.095853 -0.101723 -0.152239
v -0.095853 -0.707107 -0.707107
v 0.095853 -0.129469 -0.129469
v -0.095853 -0.831470 -0.555570
v 0.095853 -0.152239 -0.101723
v -0.095853 -0.923880 -0.382683
v 0.095853 -0.169159 -0.070068
v -0.095853 -0.980785 -0.195090
v 0.095853 -0.179578 -0.035721
v -0.095853 -1.000000 -0.000000
v 0.095853 -0.183097 -0.000000
v -0.095853 -0.980785 0.195090
v 0.095853 -0.179578 0.035720
v -0.095853 -0.923880 0.382683
v 0.095853 -0.169159 0.070068
v -0.095853 -0.831470 0.555570
v 0.095853 -0.152239 0.101723
v -0.095853 -0.707107 0.707107
v 0.095853 -0.129469 0.129469
v -0.095853 -0.555570 0.831470
v 0.095853 -0.101723 0.152239
v -0.095853 -0.382683 0.923880
v 0.095853 -0.070068 0.169159
v -0.095853 -0.195090 0.980785
v 0.095853 -0.035720 0.179578
v -0.095853 0.000000 1.000000
v 0.095853 0.000000 0.183096
v -0.095853 0.195091 0.980785
v 0.095853 0.035720 0.179578
v -0.095853 0.382684 0.923879
v 0.095853 0.070068 0.169159
v -0.095853 0.555571 0.831469
v 0.095853 0.101723 0.152239
v -0.095853 0.707107 0.707106
v 0.095853 0.129469 0.129468
v -0.095853 0.831470 0.555570
v 0.095853 0.152239 0.101723
v -0.095853 0.923880 0.382683
v 0.095853 0.169159 0.070068
v -0.095853 0.980785 0.195089
v 0.095853 0.179578 0.035720
v -0.095853 1.000000 -0.000001
v 0.095853 0.183097 -0.000000
v -0.095853 0.980785 -0.195091
v 0.095853 0.179578 -0.035721
v -0.095853 0.923879 -0.382684
v 0.095853 0.169159 -0.070068
v -0.095853 0.831469 -0.555571
v 0.095853 0.152239 -0.101723
v -0.095853 0.707106 -0.707108
v 0.095853 0.129469 -0.129469
v -0.095853 0.555569 -0.831470
v 0.095853 0.101723 -0.152240
v -0.095853 0.382682 -0.923880
v 0.095853 0.070068 -0.169160
v -0.095853 0.195089 -0.980786
v 0.095853 0.035720 -0.179579
v -0.000000 -0.000000 -0.762910
v -0.000000 -0.148836 -0.748251
v -0.000000 -0.291953 -0.704837
v -0.000000 -0.423850 -0.634336
v 0.000000 -0.539459 -0.539459
v 0.000000 -0.634336 -0.423850
v 0.000000 -0.704837 -0.291953
v 0.000000 -0.748251 -0.148836
v 0.000000 -0.762910 -0.000000
v 0.000000 -0.748251 0.148836
v 0.000000 -0.704837 0.291953
v 0.000000 -0.634336 0.423850
v 0.000000 -0.539459 0.539459
v 0.000000 -0.423850 0.634336
v 0.000000 -0.291953 0.704837
v 0.000000 -0.148836 0.748251
v 0.000000 0.000000 0.762910
v 0.000000 0.148837 0.748251
v 0.000000 0.291953 0.704837
v 0.000000 0.423850 0.634336
v -0.000000 0.539459 0.539458
v -0.000000 0.634337 0.423850
v -0.000000 0.704837 0.291952
v -0.000000 0.748251 0.148836
v -0.000000 0.762910 -0.000001
v -0.000000 0.748251 -0.148837
v -0.000000 0.704837 -0.291954
v -0.000000 0.634336 -0.423851
v -0.000000 0.539458 -0.539460
v -0.000000 0.423849 -0.634337
v -0.000000 0.291952 -0.704837
v -0.000000 0.148835 -0.748251
v 0.047926 -0.000000 -0.552889
v 0.047926 -0.107863 -0.542266
v 0.047926 -0.211582 -0.510803
v 0.047927 -0.307169 -0.459711
v 0.047927 -0.390952 -0.390952
v 0.047927 -0.459711 -0.307169
v 0.047927 -0.510803 -0.211582
v 0.047927 -0.542266 -0.107863
v 0.047927 -0.552889 -0.000000
v 0.047927 -0.542266 0.107863
v 0.047927 -0.510803 0.211581
v 0.047927 -0.459711 0.307169
v 0.047927 -0.390952 0.390952
v 0.047927 -0.307169 0.459710
v 0.047927 -0.211581 0.510803
v 0.047927 -0.107863 0.542265
v 0.047927 0.000000 0.552889
v 0.047927 0.107864 0.542265
v 0.047927 0.211582 0.510803
v 0.047927 0.307169 0.459710
v 0.047926 0.390952 0.390951
v 0.047926 0.459711 0.307168
v 0.047926 0.510803 0.211581
v 0.047926 0.542266 0.107863
v 0.047926 0.552889 -0.000001
v 0.047926 0.542265 -0.107864
v 0.047926 0.510803 -0.211582
v 0.047926 0.459710 -0.307169
v 0.047926 0.390951 -0.390952
v 0.047926 0.307168 -0.459711
v 0.047926 0.211581 -0.510803
v 0.047926 0.107862 -0.542266
v 0.076615 -0.000000 -0.331530
v 0.076615 -0.064678 -0.325160
v 0.076615 -0.126871 -0.306294
v 0.076615 -0.184188 -0.275657
v 0.076616 -0.234427 -0.234427
v 0.076616 -0.275657 -0.184188
v 0.076616 -0.306294 -0.126871
v 0.076616 -0.325160 -0.064679
v 0.076616 -0.331530 -0.000000
v 0.076616 -0.325160 0.064678
v 0.076616 -0.306294 0.126871
v 0.076616 -0.275657 0.184188
v 0.076616 -0.234427 0.234427
v 0.076616 -0.184188 0.275657
v 0.076616 -0.126871 0.306294
v 0.076616 -0.064678 0.325160
v 0.076616 0.000000 0.331530
v 0.076616 0.064678 0.325160
v 0.076616 0.126871 0.306294
v 0.076615 0.184188 0.275657
v 0.076615 0.234427 0.234427
v 0.076615 0.275657 0.184188
v 0.076615 0.306294 0.126871
v 0.076615 0.325160 0.064678
v 0.076615 0.331530 -0.000001
v 0.076615 0.325160 -0.064679
v 0.076615 0.306294 -0.126872
v 0.076615 0.275657 -0.184189
v 0.076615 0.234427 -0.234428
v 0.076615 0.184188 -0.275658
v 0.076615 0.126871 -0.306294
v 0.076615 0.064678 -0.325160
vt 0.345700 0.764346
vt 0.341431 0.716283
vt 0.347366 0.715006
vt 0.360933 0.761338
vt 0.352942 0.712596
vt 0.375292 0.755411
vt 0.357944 0.709145
vt 0.388221 0.746792
vt 0.362179 0.704785
vt 0.399220 0.735812
vt 0.365485 0.699684
vt 0.407864 0.722894
vt 0.367734 0.694039
vt 0.413819 0.708536
vt 0.368839 0.688066
vt 0.416855 0.693294
vt 0.368760 0.681995
vt 0.416855 0.677755
vt 0.367498 0.676061
vt 0.413820 0.662519
vt 0.365105 0.670492
vt 0.407867 0.648174
vt 0.361672 0.665503
vt 0.399229 0.635275
vt 0.357332 0.661285
vt 0.388239 0.624317
vt 0.352255 0.658003
vt 0.375324 0.615723
vt 0.346637 0.655781
vt 0.360984 0.609823
vt 0.340694 0.654708
vt 0.345772 0.606842
vt 0.334658 0.654823
vt 0.330277 0.606892
vt 0.328762 0.656126
vt 0.315097 0.609966
vt 0.323235 0.658567
vt 0.300813 0.615940
vt 0.318291 0.662055
vt 0.287972 0.624578
vt 0.314126 0.666459
vt 0.277059 0.635539
vt 0.310781 0.671554
vt 0.268478 0.648396
vt 0.308496 0.677190
vt 0.262549 0.662676
vt 0.307357 0.683150
vt 0.259505 0.677836
vt 0.307391 0.689191
vt 0.259467 0.693299
vt 0.308616 0.695099
vt 0.262439 0.708478
vt 0.310980 0.700646
vt 0.268315 0.722793
vt 0.314392 0.705616
vt 0.276877 0.735690
vt 0.318717 0.709819
vt 0.287799 0.746670
vt 0.323789 0.713091
vt 0.300663 0.755309
vt 0.329410 0.715307
vt 0.314974 0.761270
vt 0.480770 0.665401
vt 0.475789 0.670382
vt 0.469932 0.674296
vt 0.463424 0.676992
vt 0.456515 0.678366
vt 0.449470 0.678366
vt 0.442561 0.676992
vt 0.436053 0.674296
vt 0.430196 0.670382
vt 0.425215 0.665401
vt 0.421301 0.659544
vt 0.418605 0.653036
vt 0.417231 0.646127
vt 0.417231 0.639082
vt 0.418605 0.632173
vt 0.421301 0.625665
vt 0.425215 0.619807
vt 0.430196 0.614826
vt 0.436053 0.610913
vt 0.442561 0.608217
vt 0.449470 0.606842
vt 0.456515 0.606842
vt 0.463424 0.608217
vt 0.469932 0.610913
vt 0.475789 0.614826
vt 0.480771 0.619807
vt 0.484684 0.625665
vt 0.487380 0.632173
vt 0.488754 0.639082
vt 0.488754 0.646126
vt 0.487380 0.653035
vt 0.484684 0.659544
vt 0.335366 0.716378
vt 0.330182 0.764322
vt 0.781424 0.396177
vt 0.819898 0.396178
vt 0.857632 0.403683
vt 0.893178 0.418407
vt 0.925167 0.439782
vt 0.952372 0.466987
vt 0.973747 0.498976
vt 0.988471 0.534522
vt 0.995977 0.572256
vt 0.995977 0.610730
vt 0.988471 0.648464
vt 0.973748 0.684010
vt 0.952373 0.716000
vt 0.925167 0.743205
vt 0.893177 0.764580
vt 0.857632 0.779303
vt 0.819897 0.786809
vt 0.781423 0.786809
vt 0.743688 0.779303
vt 0.708143 0.764579
vt 0.676153 0.743204
vt 0.648948 0.715999
vt 0.627573 0.684009
vt 0.612850 0.648464
vt 0.605344 0.610729
vt 0.605344 0.572255
vt 0.612850 0.534521
vt 0.627574 0.498976
vt 0.648949 0.466986
vt 0.676154 0.439781
vt 0.708144 0.418406
vt 0.743690 0.403683
vt 0.157968 0.571415
vt 0.258138 0.389962
vt 0.275684 0.396722
vt 0.212921 0.594444
vt 0.108621 0.538108
vt 0.242292 0.379881
vt 0.066770 0.495831
vt 0.228765 0.366870
vt 0.034002 0.446235
vt 0.218088 0.351424
vt 0.011539 0.391242
vt 0.210687 0.334136
vt 0.000188 0.332967
vt 0.206871 0.315665
vt 0.000316 0.273624
vt 0.206820 0.296736
vt 0.011873 0.215421
vt 0.210398 0.277909
vt 0.034437 0.160495
vt 0.216781 0.260037
vt 0.067231 0.110945
vt 0.226565 0.243864
vt 0.109060 0.068687
vt 0.239337 0.230010
vt 0.158357 0.035373
vt 0.254582 0.218996
vt 0.213247 0.012314
vt 0.271698 0.211235
vt 0.271625 0.000425
vt 0.290015 0.207016
vt 0.331242 0.000188
vt 0.308821 0.206498
vt 0.389792 0.011632
vt 0.327384 0.209699
vt 0.445005 0.034328
vt 0.344983 0.216497
vt 0.494742 0.067410
vt 0.360934 0.226630
vt 0.537069 0.109607
vt 0.374618 0.239710
vt 0.570345 0.159291
vt 0.385500 0.255235
vt 0.593275 0.214545
vt 0.393157 0.272606
vt 0.604968 0.273233
vt 0.397290 0.291156
vt 0.604968 0.333087
vt 0.397736 0.310169
vt 0.593273 0.391792
vt 0.394476 0.328913
vt 0.570336 0.447078
vt 0.387635 0.346666
vt 0.537044 0.496807
vt 0.377479 0.362744
vt 0.494690 0.539059
vt 0.364400 0.376529
vt 0.444916 0.572203
vt 0.348905 0.387492
vt 0.389653 0.594962
vt 0.331594 0.395215
vt 0.331046 0.606467
vt 0.313138 0.399403
vt 0.271366 0.606286
vt 0.294250 0.399898
vt 0.896927 0.373042
vt 0.846452 0.276280
vt 0.860692 0.266396
vt 0.929128 0.351334
vt 0.861075 0.388032
vt 0.830523 0.283165
vt 0.822955 0.395718
vt 0.813522 0.286781
vt 0.784038 0.395802
vt 0.796109 0.286983
vt 0.745821 0.388272
vt 0.778946 0.283781
vt 0.709779 0.373407
vt 0.762696 0.277300
vt 0.677311 0.351772
vt 0.748006 0.267765
vt 0.649677 0.324194
vt 0.735443 0.255540
vt 0.627951 0.291736
vt 0.725493 0.241096
vt 0.612979 0.255648
vt 0.718540 0.224988
vt 0.605344 0.217325
vt 0.714853 0.207835
vt 0.605344 0.178250
vt 0.714574 0.190299
vt 0.612980 0.139937
vt 0.717711 0.173055
vt 0.627956 0.103870
vt 0.724142 0.156768
vt 0.649688 0.071446
vt 0.733614 0.142065
vt 0.677330 0.043922
vt 0.745760 0.129512
vt 0.709804 0.022362
vt 0.760106 0.119591
vt 0.745842 0.007596
vt 0.776094 0.112684
vt 0.784039 0.000188
vt 0.793105 0.109054
vt 0.822907 0.000409
vt 0.810477 0.108842
vt 0.860941 0.008230
vt 0.827524 0.112042
vt 0.896674 0.023324
vt 0.843597 0.118551
vt 0.928745 0.045083
vt 0.858068 0.128120
vt 0.955952 0.072640
vt 0.870371 0.140395
vt 0.977306 0.104921
vt 0.880033 0.154924
vt 0.992058 0.140698
vt 0.886714 0.171177
vt 0.999670 0.178674
vt 0.890565 0.188368
vt 0.999812 0.217424
vt 0.891035 0.205902
vt 0.992448 0.255478
vt 0.888172 0.223054
vt 0.977812 0.291385
vt 0.881971 0.239261
vt 0.956437 0.323757
vt 0.872688 0.253895
vt 0.142530 0.866275
vt 0.136018 0.793821
vt 0.146950 0.791469
vt 0.167537 0.861263
vt 0.117027 0.866300
vt 0.124840 0.793971
vt 0.092011 0.861338
vt 0.113852 0.791912
vt 0.068440 0.851586
vt 0.103479 0.787721
vt 0.047216 0.837412
vt 0.094092 0.781569
vt 0.029156 0.819357
vt 0.086071 0.773692
vt 0.014959 0.798111
vt 0.079724 0.764393
vt 0.005176 0.774492
vt 0.075308 0.754027
vt 0.000188 0.749409
vt 0.072994 0.742992
vt 0.000188 0.723828
vt 0.072871 0.731711
vt 0.005178 0.698736
vt 0.074931 0.720618
vt 0.014969 0.675099
vt 0.079108 0.710141
vt 0.029182 0.653831
vt 0.085242 0.700682
vt 0.047267 0.635752
vt 0.093095 0.692604
vt 0.068526 0.621558
vt 0.102353 0.686210
vt 0.092137 0.611797
vt 0.112670 0.681754
vt 0.117186 0.606842
vt 0.123646 0.679404
vt 0.142704 0.606877
vt 0.134836 0.679232
vt 0.167711 0.611897
vt 0.145826 0.681266
vt 0.191245 0.621706
vt 0.156196 0.685429
vt 0.212403 0.635924
vt 0.165545 0.691560
vt 0.230374 0.653999
vt 0.173517 0.699422
vt 0.244472 0.675233
vt 0.179796 0.708712
vt 0.254164 0.698806
vt 0.184139 0.719074
vt 0.259092 0.723813
vt 0.186374 0.730113
vt 0.259074 0.749306
vt 0.186449 0.741406
vt 0.254113 0.774319
vt 0.184384 0.752519
vt 0.244388 0.797903
vt 0.180259 0.763022
vt 0.230260 0.819148
vt 0.174193 0.772504
vt 0.212263 0.837232
vt 0.166414 0.780603
vt 0.191084 0.851455
vt 0.157215 0.787006
vn 0.9916 -0.0127 -0.1285
vn 0.9916 -0.0375 -0.1236
vn 0.9916 -0.0609 -0.1139
vn 0.9916 -0.0819 -0.0998
vn 0.9916 -0.0998 -0.0819
vn 0.9916 -0.1139 -0.0609
vn 0.9916 -0.1236 -0.0375
vn 0.9916 -0.1285 -0.0127
vn 0.9916 -0.1285 0.0127
vn 0.9916 -0.1236 0.0375
vn 0.9916 -0.1139 0.0609
vn 0.9916 -0.0998 0.0819
vn 0.9916 -0.0819 0.0998
vn 0.9916 -0.0609 0.1139
vn 0.9916 -0.0375 0.1236
vn 0.9916 -0.0127 0.1285
vn 0.9916 0.0127 0.1285
vn 0.9916 0.0375 0.1236
vn 0.9916 0.0609 0.1139
vn 0.9916 0.0819 0.0998
vn 0.9916 0.0998 0.0819
vn 0.9916 0.1139 0.0609
vn 0.9916 0.1236 0.0375
vn 0.9916 0.1285 0.0127
vn 0.9916 0.1285 -0.0127
vn 0.9916 0.1236 -0.0375
vn 0.9916 0.1139 -0.0609
vn 0.9916 0.0998 -0.0819
vn 0.9916 0.0819 -0.0998
vn 0.9916 0.0609 -0.1139
vn 1.0000 0.0000 -0.0000
vn 0.9916 0.0375 -0.1236
vn 0.9916 0.0127 -0.1285
vn -1.0000 -0.0000 0.0000
vn 0.9265 0.0369 -0.3746
vn 0.9265 0.1093 -0.3602
vn 0.9265 0.1774 -0.3319
vn 0.9265 0.2388 -0.2909
vn 0.9265 0.2909 -0.2388
vn 0.9265 0.3319 -0.1774
vn 0.9265 0.3602 -0.1093
vn 0.9265 0.3746 -0.0369
vn 0.9265 0.3746 0.0369
vn 0.9265 0.3602 0.1093
vn 0.9265 0.3319 0.1774
vn 0.9265 0.2909 0.2388
vn 0.9265 0.2388 0.2909
vn 0.9265 0.1774 0.3319
vn 0.9265 0.1093 0.3602
vn 0.9265 0.0369 0.3746
vn 0.9265 -0.0369 0.3746
vn 0.9265 -0.1093 0.3602
vn 0.9265 -0.1774 0.3319
vn 0.9265 -0.2388 0.2909
vn 0.9265 -0.2909 0.2388
vn 0.9265 -0.3319 0.1774
vn 0.9265 -0.3602 0.1093
vn 0.9265 -0.3746 0.0369
vn 0.9265 -0.3746 -0.0369
vn 0.9265 -0.3602 -0.1093
vn 0.9265 -0.3319 -0.1774
vn 0.9265 -0.2909 -0.2388
vn 0.9265 -0.2388 -0.2909
vn 0.9265 -0.1774 -0.3319
vn 0.9265 -0.1093 -0.3602
vn 0.9265 -0.0369 -0.3746
vn 0.9747 0.0219 -0.2224
vn 0.9747 0.0649 -0.2139
vn 0.9747 0.1054 -0.1971
vn 0.9747 0.1418 -0.1728
vn 0.9747 0.1728 -0.1418
vn 0.9747 0.1971 -0.1054
vn 0.9747 0.2139 -0.0649
vn 0.9747 0.2224 -0.0219
vn 0.9747 0.2224 0.0219
vn 0.9747 0.2139 0.0649
vn 0.9747 0.1971 0.1054
vn 0.9747 0.1728 0.1418
vn 0.9747 0.1418 0.1728
vn 0.9747 0.1054 0.1971
vn 0.9747 0.0649 0.2139
vn 0.9747 0.0219 0.2224
vn 0.9747 -0.0219 0.2224
vn 0.9747 -0.0649 0.2139
vn 0.9747 -0.1054 0.1971
vn 0.9747 -0.1418 0.1728
vn 0.9747 -0.1728 0.1418
vn 0.9747 -0.1971 0.1054
vn 0.9747 -0.2139 0.0649
vn 0.9747 -0.2224 0.0219
vn 0.9747 -0.2224 -0.0219
vn 0.9747 -0.2139 -0.0649
vn 0.9747 -0.1971 -0.1054
vn 0.9747 -0.1728 -0.1418
vn 0.9747 -0.1418 -0.1728
vn 0.9747 -0.1054 -0.1971
vn 0.9747 -0.0649 -0.2139
vn 0.9747 -0.0219 -0.2224
usemtl None
s off
f 129/1/1 2/2/1 4/3/1 130/4/1
f 130/4/2 4/3/2 6/5/2 131/6/2
f 131/6/3 6/5/3 8/7/3 132/8/3
f 132/8/4 8/7/4 10/9/4 133/10/4
f 133/10/5 10/9/5 12/11/5 134/12/5
f 134/12/6 12/11/6 14/13/6 135/14/6
f 135/14/7 14/13/7 16/15/7 136/16/7
f 136/16/8 16/15/8 18/17/8 137/18/8
f 137/18/9 18/17/9 20/19/9 138/20/9
f 138/20/10 20/19/10 22/21/10 139/22/10
f 139/22/11 22/21/11 24/23/11 140/24/11
f 140/24/12 24/23/12 26/25/12 141/26/12
f 141/26/13 26/25/13 28/27/13 142/28/13
f 142/28/14 28/27/14 30/29/14 143/30/14
f 143/30/15 30/29/15 32/31/15 144/32/15
f 144/32/16 32/31/16 34/33/16 145/34/16
f 145/34/17 34/33/17 36/35/17 146/36/17
f 146/36/18 36/35/18 38/37/18 147/38/18
f 147/38/19 38/37/19 40/39/19 148/40/19
f 148/40/20 40/39/20 42/41/20 149/42/20
f 149/42/21 42/41/21 44/43/21 150/44/21
f 150/44/22 44/43/22 46/45/22 151/46/22
f 151/46/23 46/45/23 48/47/23 152/48/23
f 152/48/24 48/47/24 50/49/24 153/50/24
f 153/50/25 50/49/25 52/51/25 154/52/25
f 154/52/26 52/51/26 54/53/26 155/54/26
f 155/54/27 54/53/27 56/55/27 156/56/27
f 156/56/28 56/55/28 58/57/28 157/58/28
f 157/58/29 58/57/29 60/59/29 158/60/29
f 158/60/30 60/59/30 62/61/30 159/62/30
f 4/63/31 2/64/31 64/65/31 62/66/31 60/67/31 58/68/31 56/69/31 54/70/31 52/71/31 50/72/31 48/73/31 46/74/31 44/75/31 42/76/31 40/77/31 38/78/31 36/79/31 34/80/31 32/81/31 30/82/31 28/83/31 26/84/31 24/85/31 22/86/31 20/87/31 18/88/31 16/89/31 14/90/31 12/91/31 10/92/31 8/93/31 6/94/31
f 159/62/32 62/61/32 64/95/32 160/96/32
f 160/96/33 64/95/33 2/2/33 129/1/33
f 1/97/34 3/98/34 5/99/34 7/100/34 9/101/34 11/102/34 13/103/34 15/104/34 17/105/34 19/106/34 21/107/34 23/108/34 25/109/34 27/110/34 29/111/34 31/112/34 33/113/34 35/114/34 37/115/34 39/116/34 41/117/34 43/118/34 45/119/34 47/120/34 49/121/34 51/122/34 53/123/34 55/124/34 57/125/34 59/126/34 61/127/34 63/128/34
f 63/129/35 96/130/35 65/131/35 1/132/35
f 61/133/36 95/134/36 96/130/36 63/129/36
f 59/135/37 94/136/37 95/134/37 61/133/37
f 57/137/38 93/138/38 94/136/38 59/135/38
f 55/139/39 92/140/39 93/138/39 57/137/39
f 53/141/40 91/142/40 92/140/40 55/139/40
f 51/143/41 90/144/41 91/142/41 53/141/41
f 49/145/42 89/146/42 90/144/42 51/143/42
f 47/147/43 88/148/43 89/146/43 49/145/43
f 45/149/44 87/150/44 88/148/44 47/147/44
f 43/151/45 86/152/45 87/150/45 45/149/45
f 41/153/46 85/154/46 86/152/46 43/151/46
f 39/155/47 84/156/47 85/154/47 41/153/47
f 37/157/48 83/158/48 84/156/48 39/155/48
f 35/159/49 82/160/49 83/158/49 37/157/49
f 33/161/50 81/162/50 82/160/50 35/159/50
f 31/163/51 80/164/51 81/162/51 33/161/51
f 29/165/52 79/166/52 80/164/52 31/163/52
f 27/167/53 78/168/53 79/166/53 29/165/53
f 25/169/54 77/170/54 78/168/54 27/167/54
f 23/171/55 76/172/55 77/170/55 25/169/55
f 21/173/56 75/174/56 76/172/56 23/171/56
f 19/175/57 74/176/57 75/174/57 21/173/57
f 17/177/58 73/178/58 74/176/58 19/175/58
f 15/179/59 72/180/59 73/178/59 17/177/59
f 13/181/60 71/182/60 72/180/60 15/179/60
f 11/183/61 70/184/61 71/182/61 13/181/61
f 9/185/62 69/186/62 70/184/62 11/183/62
f 7/187/63 68/188/63 69/186/63 9/185/63
f 5/189/64 67/190/64 68/188/64 7/187/64
f 3/191/65 66/192/65 67/190/65 5/189/65
f 1/132/66 65/131/66 66/192/66 3/191/66
f 96/193/67 128/194/67 97/195/67 65/196/67
f 95/197/68 127/198/68 128/194/68 96/193/68
f 94/199/69 126/200/69 127/198/69 95/197/69
f 93/201/70 125/202/70 126/200/70 94/199/70
f 92/203/71 124/204/71 125/202/71 93/201/71
f 91/205/72 123/206/72 124/204/72 92/203/72
f 90/207/73 122/208/73 123/206/73 91/205/73
f 89/209/74 121/210/74 122/208/74 90/207/74
f 88/211/75 120/212/75 121/210/75 89/209/75
f 87/213/76 119/214/76 120/212/76 88/211/76
f 86/215/77 118/216/77 119/214/77 87/213/77
f 85/217/78 117/218/78 118/216/78 86/215/78
f 84/219/79 116/220/79 117/218/79 85/217/79
f 83/221/80 115/222/80 116/220/80 84/219/80
f 82/223/81 114/224/81 115/222/81 83/221/81
f 81/225/82 113/226/82 114/224/82 82/223/82
f 80/227/83 112/228/83 113/226/83 81/225/83
f 79/229/84 111/230/84 112/228/84 80/227/84
f 78/231/85 110/232/85 111/230/85 79/229/85
f 77/233/86 109/234/86 110/232/86 78/231/86
f 76/235/87 108/236/87 109/234/87 77/233/87
f 75/237/88 107/238/88 108/236/88 76/235/88
f 74/239/89 106/240/89 107/238/89 75/237/89
f 73/241/90 105/242/90 106/240/90 74/239/90
f 72/243/91 104/244/91 105/242/91 73/241/91
f 71/245/92 103/246/92 104/244/92 72/243/92
f 70/247/93 102/248/93 103/246/93 71/245/93
f 69/249/94 101/250/94 102/248/94 70/247/94
f 68/251/95 100/252/95 101/250/95 69/249/95
f 67/253/96 99/254/96 100/252/96 68/251/96
f 66/255/97 98/256/97 99/254/97 67/253/97
f 65/196/98 97/195/98 98/256/98 66/255/98
f 128/257/33 160/258/33 129/259/33 97/260/33
f 127/261/32 159/262/32 160/258/32 128/257/32
f 126/263/30 158/264/30 159/262/30 127/261/30
f 125/265/29 157/266/29 158/264/29 126/263/29
f 124/267/28 156/268/28 157/266/28 125/265/28
f 123/269/27 155/270/27 156/268/27 124/267/27
f 122/271/26 154/272/26 155/270/26 123/269/26
f 121/273/25 153/274/25 154/272/25 122/271/25
f 120/275/24 152/276/24 153/274/24 121/273/24
f 119/277/23 151/278/23 152/276/23 120/275/23
f 118/279/22 150/280/22 151/278/22 119/277/22
f 117/281/21 149/282/21 150/280/21 118/279/21
f 116/283/20 148/284/20 149/282/20 117/281/20
f 115/285/19 147/286/19 148/284/19 116/283/19
f 114/287/18 146/288/18 147/286/18 115/285/18
f 113/289/17 145/290/17 146/288/17 114/287/17
f 112/291/16 144/292/16 145/290/16 113/289/16
f 111/293/15 143/294/15 144/292/15 112/291/15
f 110/295/14 142/296/14 143/294/14 111/293/14
f 109/297/13 141/298/13 142/296/13 110/295/13
f 108/299/12 140/300/12 141/298/12 109/297/12
f 107/301/11 139/302/11 140/300/11 108/299/11
f 106/303/10 138/304/10 139/302/10 107/301/10
f 105/305/9 137/306/9 138/304/9 106/303/9
f 104/307/8 136/308/8 137/306/8 105/305/8
f 103/309/7 135/310/7 136/308/7 104/307/7
f 102/311/6 134/312/6 135/310/6 103/309/6
f 101/313/5 133/314/5 134/312/5 102/311/5
f 100/315/4 132/316/4 133/314/4 101/313/4
f 99/317/3 131/318/3 132/316/3 100/315/3
f 98/319/2 130/320/2 131/318/2 99/317/2
f 97/260/1 129/259/1 130/320/1 98/319/1
