# Blender v2.79 (sub 0) OBJ File: 'target3.blend'
# www.blender.org
mtllib target3.mtl
o Cylinder
v 0.076615 0.000000 -0.331530
v 0.095853 0.000000 -0.183097
v 0.095853 -0.035720 -0.179579
v 0.076615 -0.064678 -0.325160
v 0.095853 -0.070068 -0.169159
v 0.076615 -0.126871 -0.306294
v 0.095853 -0.101723 -0.152239
v 0.076615 -0.184188 -0.275657
v 0.095853 -0.129469 -0.129469
v 0.076616 -0.234427 -0.234427
v 0.095853 -0.152239 -0.101723
v 0.076616 -0.275657 -0.184188
v 0.095853 -0.169159 -0.070068
v 0.076616 -0.306294 -0.126871
v 0.095853 -0.179578 -0.035721
v 0.076616 -0.325160 -0.064679
v 0.095853 -0.183097 -0.000000
v 0.076616 -0.331530 -0.000000
v 0.095853 -0.179578 0.035720
v 0.076616 -0.325160 0.064678
v 0.095853 -0.169159 0.070068
v 0.076616 -0.306294 0.126871
v 0.095853 -0.152239 0.101723
v 0.076616 -0.275657 0.184188
v 0.095853 -0.129469 0.129469
v 0.076616 -0.234427 0.234427
v 0.095853 -0.101723 0.152239
v 0.076616 -0.184188 0.275657
v 0.095853 -0.070068 0.169159
v 0.076616 -0.126871 0.306294
v 0.095853 -0.035720 0.179578
v 0.076616 -0.064678 0.325160
v 0.095853 -0.000000 0.183096
v 0.076616 -0.000000 0.331530
v 0.095853 0.035720 0.179578
v 0.076616 0.064678 0.325160
v 0.095853 0.070068 0.169159
v 0.076616 0.126871 0.306294
v 0.095853 0.101723 0.152239
v 0.076615 0.184188 0.275657
v 0.095853 0.129469 0.129468
v 0.076615 0.234427 0.234427
v 0.095853 0.152239 0.101723
v 0.076615 0.275657 0.184188
v 0.095853 0.169159 0.070068
v 0.076615 0.306294 0.126871
v 0.095853 0.179578 0.035720
v 0.076615 0.325160 0.064678
v 0.095853 0.183097 0.000000
v 0.076615 0.331530 -0.000001
v 0.095853 0.179578 -0.035721
v 0.076615 0.325160 -0.064679
v 0.095853 0.169159 -0.070068
v 0.076615 0.306294 -0.126872
v 0.095853 0.152239 -0.101723
v 0.076615 0.275657 -0.184189
v 0.095853 0.129469 -0.129469
v 0.076615 0.234427 -0.234428
v 0.095853 0.101723 -0.152240
v 0.076615 0.184188 -0.275658
v 0.095853 0.070068 -0.169160
v 0.076615 0.126871 -0.306294
v 0.095853 0.035720 -0.179579
v 0.076615 0.064678 -0.325160
v -0.095853 0.000000 -1.000000
v -0.095853 -0.195090 -0.980785
v -0.095853 -0.382683 -0.923880
v -0.095853 -0.555570 -0.831470
v -0.095853 -0.707107 -0.707107
v -0.095853 -0.831470 -0.555570
v -0.095853 -0.923880 -0.382683
v -0.095853 -0.980785 -0.195090
v -0.095853 -1.000000 -0.000000
v -0.095853 -0.980785 0.195090
v -0.095853 -0.923880 0.382683
v -0.095853 -0.831470 0.555570
v -0.095853 -0.707107 0.707107
v -0.095853 -0.555570 0.831470
v -0.095853 -0.382683 0.923880
v -0.095853 -0.195090 0.980785
v -0.095853 -0.000000 1.000000
v -0.095853 0.195091 0.980785
v -0.095853 0.382684 0.923879
v -0.095853 0.555571 0.831469
v -0.095853 0.707107 0.707106
v -0.095853 0.831470 0.555570
v -0.095853 0.923880 0.382683
v -0.095853 0.980785 0.195089
v -0.095853 1.000000 -0.000001
v -0.095853 0.980785 -0.195091
v -0.095853 0.923879 -0.382684
v -0.095853 0.831469 -0.555571
v -0.095853 0.707106 -0.707108
v -0.095853 0.555569 -0.831470
v -0.095853 0.382682 -0.923880
v -0.095853 0.195089 -0.980786
v 0.000000 0.148835 -0.748251
v 0.000000 0.000000 -0.762910
v 0.000000 0.291952 -0.704837
v 0.000000 0.423849 -0.634337
v 0.000000 0.539458 -0.539460
v 0.000000 0.634336 -0.423851
v 0.000000 0.704837 -0.291954
v 0.000000 0.748251 -0.148837
v 0.000000 0.762910 -0.000001
v 0.000000 0.748251 0.148836
v 0.000000 0.704837 0.291952
v 0.000000 0.634337 0.423850
v 0.000000 0.539459 0.539458
v 0.000000 0.423850 0.634336
v 0.000000 0.291953 0.704837
v 0.000000 0.148837 0.748251
v 0.000000 -0.000000 0.762910
v 0.000000 -0.148836 0.748251
v 0.000000 -0.291953 0.704837
v 0.000000 -0.423850 0.634336
v 0.000000 -0.539459 0.539459
v 0.000000 -0.634336 0.423850
v 0.000000 -0.704837 0.291953
v 0.000000 -0.748251 0.148836
v 0.000000 -0.762910 -0.000000
v 0.000000 -0.748251 -0.148836
v 0.000000 -0.704837 -0.291953
v 0.000000 -0.634336 -0.423850
v 0.000000 -0.539459 -0.539459
v 0.000000 -0.423850 -0.634336
v 0.000000 -0.291953 -0.704837
v 0.000000 -0.148836 -0.748251
v 0.047926 0.107862 -0.542266
v 0.047926 0.000000 -0.552889
v 0.047926 0.211581 -0.510803
v 0.047926 0.307168 -0.459711
v 0.047926 0.390951 -0.390952
v 0.047926 0.459710 -0.307169
v 0.047926 0.510803 -0.211582
v 0.047926 0.542265 -0.107864
v 0.047926 0.552889 -0.000001
v 0.047926 0.542266 0.107863
v 0.047926 0.510803 0.211581
v 0.047926 0.459711 0.307168
v 0.047926 0.390952 0.390951
v 0.047927 0.307169 0.459710
v 0.047927 0.211582 0.510803
v 0.047927 0.107864 0.542265
v 0.047927 -0.000000 0.552889
v 0.047927 -0.107863 0.542265
v 0.047927 -0.211581 0.510803
v 0.047927 -0.307169 0.459710
v 0.047927 -0.390952 0.390952
v 0.047927 -0.459711 0.307169
v 0.047927 -0.510803 0.211581
v 0.047927 -0.542266 0.107863
v 0.047927 -0.552889 -0.000000
v 0.047927 -0.542266 -0.107863
v 0.047927 -0.510803 -0.211582
v 0.047927 -0.459711 -0.307169
v 0.047927 -0.390952 -0.390952
v 0.047927 -0.307169 -0.459711
v 0.047926 -0.211582 -0.510803
v 0.047926 -0.107863 -0.542266
vt 0.655143 0.808025
vt 0.650874 0.759962
vt 0.656810 0.758685
vt 0.670376 0.805017
vt 0.662385 0.756275
vt 0.684735 0.799090
vt 0.667387 0.752824
vt 0.697664 0.790471
vt 0.671622 0.748464
vt 0.708663 0.779491
vt 0.674928 0.743363
vt 0.717308 0.766573
vt 0.677177 0.737718
vt 0.723262 0.752215
vt 0.678282 0.731745
vt 0.726299 0.736973
vt 0.678203 0.725674
vt 0.726299 0.721434
vt 0.167701 0.843243
vt 0.119606 0.847483
vt 0.118344 0.841549
vt 0.164666 0.828007
vt 0.115951 0.835980
vt 0.158713 0.813662
vt 0.112518 0.830991
vt 0.150075 0.800763
vt 0.108178 0.826773
vt 0.139085 0.789805
vt 0.103101 0.823491
vt 0.126170 0.781211
vt 0.097483 0.821269
vt 0.111830 0.775311
vt 0.091540 0.820196
vt 0.096618 0.772330
vt 0.085504 0.820311
vt 0.081123 0.772380
vt 0.639720 0.650571
vt 0.644101 0.698502
vt 0.638205 0.699805
vt 0.624541 0.653645
vt 0.632678 0.702246
vt 0.610256 0.659619
vt 0.627734 0.705734
vt 0.597416 0.668257
vt 0.623569 0.710138
vt 0.586502 0.679218
vt 0.620224 0.715233
vt 0.577921 0.692075
vt 0.617939 0.720869
vt 0.571992 0.706355
vt 0.616800 0.726829
vt 0.568948 0.721515
vt 0.616834 0.732870
vt 0.568910 0.736978
vt 0.010313 0.858787
vt 0.058237 0.854679
vt 0.059462 0.860587
vt 0.013285 0.873966
vt 0.061826 0.866134
vt 0.019161 0.888281
vt 0.065238 0.871104
vt 0.027723 0.901178
vt 0.069563 0.875307
vt 0.038645 0.912158
vt 0.074635 0.878579
vt 0.051509 0.920797
vt 0.080256 0.880795
vt 0.065820 0.926758
vt 0.448780 0.630950
vt 0.443799 0.635931
vt 0.437942 0.639845
vt 0.431434 0.642541
vt 0.424525 0.643915
vt 0.417480 0.643915
vt 0.410571 0.642541
vt 0.404063 0.639845
vt 0.398206 0.635931
vt 0.393225 0.630950
vt 0.389311 0.625093
vt 0.386615 0.618585
vt 0.385241 0.611676
vt 0.385241 0.604631
vt 0.386615 0.597722
vt 0.389311 0.591214
vt 0.393225 0.585356
vt 0.398206 0.580375
vt 0.404063 0.576462
vt 0.410571 0.573766
vt 0.417480 0.572391
vt 0.424525 0.572391
vt 0.431434 0.573766
vt 0.437942 0.576462
vt 0.443799 0.580375
vt 0.448781 0.585356
vt 0.452694 0.591214
vt 0.455390 0.597722
vt 0.456764 0.604631
vt 0.456764 0.611675
vt 0.455390 0.618584
vt 0.452694 0.625093
vt 0.086212 0.881866
vt 0.081028 0.929810
vt 0.092277 0.881771
vt 0.096546 0.929834
vt 0.781424 0.396177
vt 0.819898 0.396178
vt 0.857632 0.403683
vt 0.893178 0.418407
vt 0.925167 0.439782
vt 0.952372 0.466987
vt 0.973747 0.498976
vt 0.988471 0.534522
vt 0.995977 0.572256
vt 0.995977 0.610730
vt 0.988471 0.648464
vt 0.973748 0.684010
vt 0.952373 0.716000
vt 0.925167 0.743205
vt 0.893177 0.764580
vt 0.857632 0.779303
vt 0.819897 0.786809
vt 0.781423 0.786809
vt 0.743688 0.779303
vt 0.708143 0.764579
vt 0.676153 0.743204
vt 0.648948 0.715999
vt 0.627573 0.684009
vt 0.612850 0.648464
vt 0.605344 0.610729
vt 0.605344 0.572255
vt 0.612850 0.534521
vt 0.627574 0.498976
vt 0.648949 0.466986
vt 0.676154 0.439781
vt 0.708144 0.418406
vt 0.743690 0.403683
vt 0.660029 0.800007
vt 0.721740 0.688221
vt 0.732549 0.692386
vt 0.693883 0.814194
vt 0.629629 0.779488
vt 0.711978 0.682011
vt 0.603846 0.753443
vt 0.703644 0.673995
vt 0.583659 0.722889
vt 0.697067 0.664480
vt 0.569821 0.689010
vt 0.692507 0.653829
vt 0.562828 0.653109
vt 0.690156 0.642450
vt 0.562906 0.616551
vt 0.690125 0.630789
vt 0.570026 0.580694
vt 0.692329 0.619190
vt 0.124991 0.511175
vt 0.237325 0.572499
vt 0.233393 0.583509
vt 0.111090 0.545013
vt 0.145194 0.480650
vt 0.243353 0.562535
vt 0.170963 0.454616
vt 0.251221 0.554000
vt 0.201333 0.434093
vt 0.260613 0.547215
vt 0.235148 0.419887
vt 0.271157 0.542434
vt 0.271112 0.412563
vt 0.282442 0.539835
vt 0.307840 0.412417
vt 0.294027 0.539516
vt 0.343910 0.419467
vt 0.305463 0.541488
vt 0.836861 0.469130
vt 0.775241 0.581357
vt 0.764399 0.577169
vt 0.802846 0.455148
vt 0.867501 0.489511
vt 0.785068 0.587600
vt 0.893577 0.515507
vt 0.793498 0.595658
vt 0.914077 0.546115
vt 0.800202 0.605222
vt 0.928203 0.580154
vt 0.804919 0.615923
vt 0.935407 0.616310
vt 0.807465 0.627351
vt 0.935407 0.653183
vt 0.807740 0.639064
vt 0.928202 0.689349
vt 0.805732 0.650612
vt 0.455136 0.687727
vt 0.342581 0.625867
vt 0.346796 0.614930
vt 0.469266 0.653668
vt 0.434626 0.718363
vt 0.336325 0.635772
vt 0.408533 0.744392
vt 0.328267 0.644265
vt 0.377870 0.764811
vt 0.318721 0.651018
vt 0.343825 0.778832
vt 0.308057 0.655776
vt 0.307719 0.785920
vt 0.296687 0.658356
vt 0.270953 0.785808
vt 0.285051 0.658661
vt 0.234947 0.778513
vt 0.273613 0.656705
vt 0.414614 0.622811
vt 0.364139 0.526049
vt 0.378379 0.516165
vt 0.446815 0.601104
vt 0.378762 0.637802
vt 0.348210 0.532935
vt 0.340642 0.645488
vt 0.331208 0.536551
vt 0.301725 0.645572
vt 0.313796 0.536753
vt 0.263508 0.638041
vt 0.296632 0.533551
vt 0.227466 0.623177
vt 0.280383 0.527070
vt 0.194998 0.601542
vt 0.265693 0.517534
vt 0.167363 0.573964
vt 0.253130 0.505310
vt 0.613186 0.521819
vt 0.710728 0.471179
vt 0.720678 0.485623
vt 0.634912 0.554277
vt 0.598214 0.485731
vt 0.703775 0.455071
vt 0.590579 0.447408
vt 0.700088 0.437918
vt 0.590579 0.408333
vt 0.699809 0.420382
vt 0.598215 0.370020
vt 0.702946 0.403138
vt 0.613191 0.333953
vt 0.709377 0.386851
vt 0.634923 0.301529
vt 0.718849 0.372148
vt 0.662565 0.274005
vt 0.730995 0.359595
vt 0.227491 0.272131
vt 0.277793 0.369360
vt 0.263447 0.379281
vt 0.195017 0.293691
vt 0.263528 0.257365
vt 0.293781 0.362453
vt 0.301726 0.249957
vt 0.310792 0.358823
vt 0.340593 0.250178
vt 0.328164 0.358611
vt 0.378628 0.257999
vt 0.345211 0.361811
vt 0.414360 0.273093
vt 0.361284 0.368320
vt 0.446431 0.294852
vt 0.375755 0.377889
vt 0.473639 0.322409
vt 0.388058 0.390164
vt 0.962541 0.335004
vt 0.865268 0.385007
vt 0.855606 0.370478
vt 0.941187 0.302723
vt 0.977293 0.370781
vt 0.871949 0.401260
vt 0.984905 0.408757
vt 0.875800 0.418451
vt 0.985047 0.447507
vt 0.876270 0.435985
vt 0.977683 0.485561
vt 0.873407 0.453137
vt 0.963047 0.521468
vt 0.867206 0.469344
vt 0.941672 0.553840
vt 0.857923 0.483978
vt 0.914363 0.581417
vt 0.845927 0.496479
vt 0.701128 0.885961
vt 0.694616 0.813507
vt 0.705548 0.811155
vt 0.726135 0.880949
vt 0.675625 0.885986
vt 0.683438 0.813657
vt 0.650609 0.881024
vt 0.672450 0.811598
vt 0.627038 0.871272
vt 0.662077 0.807407
vt 0.605814 0.857098
vt 0.652690 0.801255
vt 0.587754 0.839043
vt 0.644669 0.793378
vt 0.573557 0.817797
vt 0.638322 0.784079
vt 0.563774 0.794178
vt 0.633906 0.773713
vt 0.156448 0.746948
vt 0.229254 0.740531
vt 0.231568 0.751566
vt 0.161436 0.772031
vt 0.156448 0.721367
vt 0.229131 0.729250
vt 0.161438 0.696275
vt 0.231191 0.718157
vt 0.171229 0.672638
vt 0.235368 0.707680
vt 0.185442 0.651370
vt 0.241502 0.698221
vt 0.203527 0.633291
vt 0.249355 0.690143
vt 0.224786 0.619097
vt 0.258613 0.683749
vt 0.248397 0.609336
vt 0.268930 0.679293
vt 0.675784 0.626528
vt 0.682244 0.699090
vt 0.671268 0.701440
vt 0.650735 0.631483
vt 0.701302 0.626563
vt 0.693434 0.698918
vt 0.726309 0.631583
vt 0.704424 0.700952
vt 0.749843 0.641392
vt 0.714794 0.705115
vt 0.771001 0.655610
vt 0.724143 0.711246
vt 0.788972 0.673685
vt 0.732115 0.719108
vt 0.803070 0.694919
vt 0.738394 0.728398
vt 0.812762 0.718492
vt 0.742737 0.738760
vt 0.415352 0.721352
vt 0.342634 0.727652
vt 0.340399 0.716613
vt 0.410424 0.696345
vt 0.415334 0.746845
vt 0.342709 0.738945
vt 0.410373 0.771858
vt 0.340644 0.750058
vt 0.400648 0.795442
vt 0.336519 0.760561
vt 0.386520 0.816687
vt 0.330453 0.770043
vt 0.368523 0.834771
vt 0.322674 0.778142
vt 0.347344 0.848994
vt 0.313475 0.784545
vt 0.323797 0.858802
vt 0.303210 0.789008
vn 0.9916 -0.0127 -0.1285
vn 0.9916 -0.0375 -0.1236
vn 0.9916 -0.0609 -0.1139
vn 0.9916 -0.0819 -0.0998
vn 0.9916 -0.0998 -0.0819
vn 0.9916 -0.1139 -0.0609
vn 0.9916 -0.1236 -0.0375
vn 0.9916 -0.1285 -0.0127
vn 0.9916 -0.1285 0.0127
vn 0.9916 -0.1236 0.0375
vn 0.9916 -0.1139 0.0609
vn 0.9916 -0.0998 0.0819
vn 0.9916 -0.0819 0.0998
vn 0.9916 -0.0609 0.1139
vn 0.9916 -0.0375 0.1236
vn 0.9916 -0.0127 0.1285
vn 0.9916 0.0127 0.1285
vn 0.9916 0.0375 0.1236
vn 0.9916 0.0609 0.1139
vn 0.9916 0.0819 0.0998
vn 0.9916 0.0998 0.0819
vn 0.9916 0.1139 0.0609
vn 0.9916 0.1236 0.0375
vn 0.9916 0.1285 0.0127
vn 0.9916 0.1285 -0.0127
vn 0.9916 0.1236 -0.0375
vn 0.9916 0.1139 -0.0609
vn 0.9916 0.0998 -0.0819
vn 0.9916 0.0819 -0.0998
vn 0.9916 0.0609 -0.1139
vn 1.0000 0.0000 0.0000
vn 0.9916 0.0375 -0.1236
vn 0.9916 0.0127 -0.1285
vn -1.0000 0.0000 0.0000
vn 0.9265 0.0369 -0.3746
vn 0.9265 0.1093 -0.3602
vn 0.9265 0.1774 -0.3319
vn 0.9265 0.2388 -0.2909
vn 0.9265 0.2909 -0.2388
vn 0.9265 0.3319 -0.1774
vn 0.9265 0.3602 -0.1093
vn 0.9265 0.3746 -0.0369
vn 0.9265 0.3746 0.0369
vn 0.9265 0.3602 0.1093
vn 0.9265 0.3319 0.1774
vn 0.9265 0.2909 0.2388
vn 0.9265 0.2388 0.2909
vn 0.9265 0.1774 0.3319
vn 0.9265 0.1093 0.3602
vn 0.9265 0.0369 0.3746
vn 0.9265 -0.0369 0.3746
vn 0.9265 -0.1093 0.3602
vn 0.9265 -0.1774 0.3319
vn 0.9265 -0.2388 0.2909
vn 0.9265 -0.2909 0.2388
vn 0.9265 -0.3319 0.1774
vn 0.9265 -0.3602 0.1093
vn 0.9265 -0.3746 0.0369
vn 0.9265 -0.3746 -0.0369
vn 0.9265 -0.3602 -0.1093
vn 0.9265 -0.3319 -0.1774
vn 0.9265 -0.2909 -0.2388
vn 0.9265 -0.2388 -0.2909
vn 0.9265 -0.1774 -0.3319
vn 0.9265 -0.1093 -0.3602
vn 0.9265 -0.0369 -0.3746
vn 0.9747 0.0219 -0.2224
vn 0.9747 0.0649 -0.2139
vn 0.9747 0.1054 -0.1971
vn 0.9747 0.1418 -0.1728
vn 0.9747 0.1728 -0.1418
vn 0.9747 0.1971 -0.1054
vn 0.9747 0.2139 -0.0649
vn 0.9747 0.2224 -0.0219
vn 0.9747 0.2224 0.0219
vn 0.9747 0.2139 0.0649
vn 0.9747 0.1971 0.1054
vn 0.9747 0.1728 0.1418
vn 0.9747 0.1418 0.1728
vn 0.9747 0.1054 0.1971
vn 0.9747 0.0649 0.2139
vn 0.9747 0.0219 0.2224
vn 0.9747 -0.0219 0.2224
vn 0.9747 -0.0649 0.2139
vn 0.9747 -0.1054 0.1971
vn 0.9747 -0.1418 0.1728
vn 0.9747 -0.1728 0.1418
vn 0.9747 -0.1971 0.1054
vn 0.9747 -0.2139 0.0649
vn 0.9747 -0.2224 0.0219
vn 0.9747 -0.2224 -0.0219
vn 0.9747 -0.2139 -0.0649
vn 0.9747 -0.1971 -0.1054
vn 0.9747 -0.1728 -0.1418
vn 0.9747 -0.1418 -0.1728
vn 0.9747 -0.1054 -0.1971
vn 0.9747 -0.0649 -0.2139
vn 0.9747 -0.0219 -0.2224
usemtl None
s 1
f 1/1/1 2/2/1 3/3/1 4/4/1
f 4/4/2 3/3/2 5/5/2 6/6/2
f 6/6/3 5/5/3 7/7/3 8/8/3
f 8/8/4 7/7/4 9/9/4 10/10/4
f 10/10/5 9/9/5 11/11/5 12/12/5
f 12/12/6 11/11/6 13/13/6 14/14/6
f 14/14/7 13/13/7 15/15/7 16/16/7
f 16/16/8 15/15/8 17/17/8 18/18/8
f 18/19/9 17/20/9 19/21/9 20/22/9
f 20/22/10 19/21/10 21/23/10 22/24/10
f 22/24/11 21/23/11 23/25/11 24/26/11
f 24/26/12 23/25/12 25/27/12 26/28/12
f 26/28/13 25/27/13 27/29/13 28/30/13
f 28/30/14 27/29/14 29/31/14 30/32/14
f 30/32/15 29/31/15 31/33/15 32/34/15
f 32/34/16 31/33/16 33/35/16 34/36/16
f 34/37/17 33/38/17 35/39/17 36/40/17
f 36/40/18 35/39/18 37/41/18 38/42/18
f 38/42/19 37/41/19 39/43/19 40/44/19
f 40/44/20 39/43/20 41/45/20 42/46/20
f 42/46/21 41/45/21 43/47/21 44/48/21
f 44/48/22 43/47/22 45/49/22 46/50/22
f 46/50/23 45/49/23 47/51/23 48/52/23
f 48/52/24 47/51/24 49/53/24 50/54/24
f 50/55/25 49/56/25 51/57/25 52/58/25
f 52/58/26 51/57/26 53/59/26 54/60/26
f 54/60/27 53/59/27 55/61/27 56/62/27
f 56/62/28 55/61/28 57/63/28 58/64/28
f 58/64/29 57/63/29 59/65/29 60/66/29
f 60/66/30 59/65/30 61/67/30 62/68/30
f 3/69/31 2/70/31 63/71/31 61/72/31 59/73/31 57/74/31 55/75/31 53/76/31 51/77/31 49/78/31 47/79/31 45/80/31 43/81/31 41/82/31 39/83/31 37/84/31 35/85/31 33/86/31 31/87/31 29/88/31 27/89/31 25/90/31 23/91/31 21/92/31 19/93/31 17/94/31 15/95/31 13/96/31 11/97/31 9/98/31 7/99/31 5/100/31
f 62/68/32 61/67/32 63/101/32 64/102/32
f 64/102/33 63/101/33 2/103/33 1/104/33
f 65/105/34 66/106/34 67/107/34 68/108/34 69/109/34 70/110/34 71/111/34 72/112/34 73/113/34 74/114/34 75/115/34 76/116/34 77/117/34 78/118/34 79/119/34 80/120/34 81/121/34 82/122/34 83/123/34 84/124/34 85/125/34 86/126/34 87/127/34 88/128/34 89/129/34 90/130/34 91/131/34 92/132/34 93/133/34 94/134/34 95/135/34 96/136/34
f 96/137/35 97/138/35 98/139/35 65/140/35
f 95/141/36 99/142/36 97/138/36 96/137/36
f 94/143/37 100/144/37 99/142/37 95/141/37
f 93/145/38 101/146/38 100/144/38 94/143/38
f 92/147/39 102/148/39 101/146/39 93/145/39
f 91/149/40 103/150/40 102/148/40 92/147/40
f 90/151/41 104/152/41 103/150/41 91/149/41
f 89/153/42 105/154/42 104/152/42 90/151/42
f 88/155/43 106/156/43 105/157/43 89/158/43
f 87/159/44 107/160/44 106/156/44 88/155/44
f 86/161/45 108/162/45 107/160/45 87/159/45
f 85/163/46 109/164/46 108/162/46 86/161/46
f 84/165/47 110/166/47 109/164/47 85/163/47
f 83/167/48 111/168/48 110/166/48 84/165/48
f 82/169/49 112/170/49 111/168/49 83/167/49
f 81/171/50 113/172/50 112/170/50 82/169/50
f 80/173/51 114/174/51 113/175/51 81/176/51
f 79/177/52 115/178/52 114/174/52 80/173/52
f 78/179/53 116/180/53 115/178/53 79/177/53
f 77/181/54 117/182/54 116/180/54 78/179/54
f 76/183/55 118/184/55 117/182/55 77/181/55
f 75/185/56 119/186/56 118/184/56 76/183/56
f 74/187/57 120/188/57 119/186/57 75/185/57
f 73/189/58 121/190/58 120/188/58 74/187/58
f 72/191/59 122/192/59 121/193/59 73/194/59
f 71/195/60 123/196/60 122/192/60 72/191/60
f 70/197/61 124/198/61 123/196/61 71/195/61
f 69/199/62 125/200/62 124/198/62 70/197/62
f 68/201/63 126/202/63 125/200/63 69/199/63
f 67/203/64 127/204/64 126/202/64 68/201/64
f 66/205/65 128/206/65 127/204/65 67/203/65
f 65/207/66 98/208/66 128/206/66 66/205/66
f 97/209/67 129/210/67 130/211/67 98/212/67
f 99/213/68 131/214/68 129/210/68 97/209/68
f 100/215/69 132/216/69 131/214/69 99/213/69
f 101/217/70 133/218/70 132/216/70 100/215/70
f 102/219/71 134/220/71 133/218/71 101/217/71
f 103/221/72 135/222/72 134/220/72 102/219/72
f 104/223/73 136/224/73 135/222/73 103/221/73
f 105/225/74 137/226/74 136/224/74 104/223/74
f 106/227/75 138/228/75 137/229/75 105/230/75
f 107/231/76 139/232/76 138/228/76 106/227/76
f 108/233/77 140/234/77 139/232/77 107/231/77
f 109/235/78 141/236/78 140/234/78 108/233/78
f 110/237/79 142/238/79 141/236/79 109/235/79
f 111/239/80 143/240/80 142/238/80 110/237/80
f 112/241/81 144/242/81 143/240/81 111/239/81
f 113/243/82 145/244/82 144/242/82 112/241/82
f 114/245/83 146/246/83 145/247/83 113/248/83
f 115/249/84 147/250/84 146/246/84 114/245/84
f 116/251/85 148/252/85 147/250/85 115/249/85
f 117/253/86 149/254/86 148/252/86 116/251/86
f 118/255/87 150/256/87 149/254/87 117/253/87
f 119/257/88 151/258/88 150/256/88 118/255/88
f 120/259/89 152/260/89 151/258/89 119/257/89
f 121/261/90 153/262/90 152/260/90 120/259/90
f 122/263/91 154/264/91 153/265/91 121/266/91
f 123/267/92 155/268/92 154/264/92 122/263/92
f 124/269/93 156/270/93 155/268/93 123/267/93
f 125/271/94 157/272/94 156/270/94 124/269/94
f 126/273/95 158/274/95 157/272/95 125/271/95
f 127/275/96 159/276/96 158/274/96 126/273/96
f 128/277/97 160/278/97 159/276/97 127/275/97
f 98/279/98 130/280/98 160/278/98 128/277/98
f 129/281/33 64/282/33 1/283/33 130/284/33
f 131/285/32 62/286/32 64/282/32 129/281/32
f 132/287/30 60/288/30 62/286/30 131/285/30
f 133/289/29 58/290/29 60/288/29 132/287/29
f 134/291/28 56/292/28 58/290/28 133/289/28
f 135/293/27 54/294/27 56/292/27 134/291/27
f 136/295/26 52/296/26 54/294/26 135/293/26
f 137/297/25 50/298/25 52/296/25 136/295/25
f 138/299/24 48/300/24 50/301/24 137/302/24
f 139/303/23 46/304/23 48/300/23 138/299/23
f 140/305/22 44/306/22 46/304/22 139/303/22
f 141/307/21 42/308/21 44/306/21 140/305/21
f 142/309/20 40/310/20 42/308/20 141/307/20
f 143/311/19 38/312/19 40/310/19 142/309/19
f 144/313/18 36/314/18 38/312/18 143/311/18
f 145/315/17 34/316/17 36/314/17 144/313/17
f 146/317/16 32/318/16 34/319/16 145/320/16
f 147/321/15 30/322/15 32/318/15 146/317/15
f 148/323/14 28/324/14 30/322/14 147/321/14
f 149/325/13 26/326/13 28/324/13 148/323/13
f 150/327/12 24/328/12 26/326/12 149/325/12
f 151/329/11 22/330/11 24/328/11 150/327/11
f 152/331/10 20/332/10 22/330/10 151/329/10
f 153/333/9 18/334/9 20/332/9 152/331/9
f 154/335/8 16/336/8 18/337/8 153/338/8
f 155/339/7 14/340/7 16/336/7 154/335/7
f 156/341/6 12/342/6 14/340/6 155/339/6
f 157/343/5 10/344/5 12/342/5 156/341/5
f 158/345/4 8/346/4 10/344/4 157/343/4
f 159/347/3 6/348/3 8/346/3 158/345/3
f 160/349/2 4/350/2 6/348/2 159/347/2
f 130/351/1 1/352/1 4/350/1 160/349/1
