# Blender v2.79 (sub 0) OBJ File: 'target.blend'
# www.blender.org
mtllib target.mtl
o Cylinder
v 0.076615 0.000000 -0.331530
v 0.095853 0.000000 -0.183097
v 0.095853 -0.035720 -0.179579
v 0.076615 -0.064678 -0.325160
v 0.095853 -0.070068 -0.169159
v 0.076615 -0.126871 -0.306294
v 0.095853 -0.101723 -0.152239
v 0.076615 -0.184188 -0.275657
v 0.095853 -0.129469 -0.129469
v 0.076616 -0.234427 -0.234427
v 0.095853 -0.152239 -0.101723
v 0.076616 -0.275657 -0.184188
v 0.095853 -0.169159 -0.070068
v 0.076616 -0.306294 -0.126871
v 0.095853 -0.179578 -0.035721
v 0.076616 -0.325160 -0.064679
v 0.095853 -0.183097 -0.000000
v 0.076616 -0.331530 -0.000000
v 0.095853 -0.179578 0.035720
v 0.076616 -0.325160 0.064678
v 0.095853 -0.169159 0.070068
v 0.076616 -0.306294 0.126871
v 0.095853 -0.152239 0.101723
v 0.076616 -0.275657 0.184188
v 0.095853 -0.129469 0.129469
v 0.076616 -0.234427 0.234427
v 0.095853 -0.101723 0.152239
v 0.076616 -0.184188 0.275657
v 0.095853 -0.070068 0.169159
v 0.076616 -0.126871 0.306294
v 0.095853 -0.035720 0.179578
v 0.076616 -0.064678 0.325160
v 0.095853 -0.000000 0.183096
v 0.076616 -0.000000 0.331530
v 0.095853 0.035720 0.179578
v 0.076616 0.064678 0.325160
v 0.095853 0.070068 0.169159
v 0.076616 0.126871 0.306294
v 0.095853 0.101723 0.152239
v 0.076615 0.184188 0.275657
v 0.095853 0.129469 0.129468
v 0.076615 0.234427 0.234427
v 0.095853 0.152239 0.101723
v 0.076615 0.275657 0.184188
v 0.095853 0.169159 0.070068
v 0.076615 0.306294 0.126871
v 0.095853 0.179578 0.035720
v 0.076615 0.325160 0.064678
v 0.095853 0.183097 0.000000
v 0.076615 0.331530 -0.000001
v 0.095853 0.179578 -0.035721
v 0.076615 0.325160 -0.064679
v 0.095853 0.169159 -0.070068
v 0.076615 0.306294 -0.126872
v 0.095853 0.152239 -0.101723
v 0.076615 0.275657 -0.184189
v 0.095853 0.129469 -0.129469
v 0.076615 0.234427 -0.234428
v 0.095853 0.101723 -0.152240
v 0.076615 0.184188 -0.275658
v 0.095853 0.070068 -0.169160
v 0.076615 0.126871 -0.306294
v 0.095853 0.035720 -0.179579
v 0.076615 0.064678 -0.325160
v -0.095853 0.000000 -1.000000
v -0.095853 -0.195090 -0.980785
v -0.095853 -0.382683 -0.923880
v -0.095853 -0.555570 -0.831470
v -0.095853 -0.707107 -0.707107
v -0.095853 -0.831470 -0.555570
v -0.095853 -0.923880 -0.382683
v -0.095853 -0.980785 -0.195090
v -0.095853 -1.000000 -0.000000
v -0.095853 -0.980785 0.195090
v -0.095853 -0.923880 0.382683
v -0.095853 -0.831470 0.555570
v -0.095853 -0.707107 0.707107
v -0.095853 -0.555570 0.831470
v -0.095853 -0.382683 0.923880
v -0.095853 -0.195090 0.980785
v -0.095853 -0.000000 1.000000
v -0.095853 0.195091 0.980785
v -0.095853 0.382684 0.923879
v -0.095853 0.555571 0.831469
v -0.095853 0.707107 0.707106
v -0.095853 0.831470 0.555570
v -0.095853 0.923880 0.382683
v -0.095853 0.980785 0.195089
v -0.095853 1.000000 -0.000001
v -0.095853 0.980785 -0.195091
v -0.095853 0.923879 -0.382684
v -0.095853 0.831469 -0.555571
v -0.095853 0.707106 -0.707108
v -0.095853 0.555569 -0.831470
v -0.095853 0.382682 -0.923880
v -0.095853 0.195089 -0.980786
v 0.000000 0.148835 -0.748251
v 0.000000 0.000000 -0.762910
v 0.000000 0.291952 -0.704837
v 0.000000 0.423849 -0.634337
v 0.000000 0.539458 -0.539460
v 0.000000 0.634336 -0.423851
v 0.000000 0.704837 -0.291954
v 0.000000 0.748251 -0.148837
v 0.000000 0.762910 -0.000001
v 0.000000 0.748251 0.148836
v 0.000000 0.704837 0.291952
v 0.000000 0.634337 0.423850
v 0.000000 0.539459 0.539458
v 0.000000 0.423850 0.634336
v 0.000000 0.291953 0.704837
v 0.000000 0.148837 0.748251
v 0.000000 -0.000000 0.762910
v 0.000000 -0.148836 0.748251
v 0.000000 -0.291953 0.704837
v 0.000000 -0.423850 0.634336
v 0.000000 -0.539459 0.539459
v 0.000000 -0.634336 0.423850
v 0.000000 -0.704837 0.291953
v 0.000000 -0.748251 0.148836
v 0.000000 -0.762910 -0.000000
v 0.000000 -0.748251 -0.148836
v 0.000000 -0.704837 -0.291953
v 0.000000 -0.634336 -0.423850
v 0.000000 -0.539459 -0.539459
v 0.000000 -0.423850 -0.634336
v 0.000000 -0.291953 -0.704837
v 0.000000 -0.148836 -0.748251
v 0.047926 0.107862 -0.542266
v 0.047926 0.000000 -0.552889
v 0.047926 0.211581 -0.510803
v 0.047926 0.307168 -0.459711
v 0.047926 0.390951 -0.390952
v 0.047926 0.459710 -0.307169
v 0.047926 0.510803 -0.211582
v 0.047926 0.542265 -0.107864
v 0.047926 0.552889 -0.000001
v 0.047926 0.542266 0.107863
v 0.047926 0.510803 0.211581
v 0.047926 0.459711 0.307168
v 0.047926 0.390952 0.390951
v 0.047927 0.307169 0.459710
v 0.047927 0.211582 0.510803
v 0.047927 0.107864 0.542265
v 0.047927 -0.000000 0.552889
v 0.047927 -0.107863 0.542265
v 0.047927 -0.211581 0.510803
v 0.047927 -0.307169 0.459710
v 0.047927 -0.390952 0.390952
v 0.047927 -0.459711 0.307169
v 0.047927 -0.510803 0.211581
v 0.047927 -0.542266 0.107863
v 0.047927 -0.552889 -0.000000
v 0.047927 -0.542266 -0.107863
v 0.047927 -0.510803 -0.211582
v 0.047927 -0.459711 -0.307169
v 0.047927 -0.390952 -0.390952
v 0.047927 -0.307169 -0.459711
v 0.047926 -0.211582 -0.510803
v 0.047926 -0.107863 -0.542266
vt 0.621923 0.963054
vt 0.617654 0.914991
vt 0.623589 0.913714
vt 0.637156 0.960046
vt 0.629165 0.911304
vt 0.651515 0.954119
vt 0.634167 0.907853
vt 0.664444 0.945500
vt 0.638402 0.903493
vt 0.675443 0.934520
vt 0.641708 0.898392
vt 0.684087 0.921602
vt 0.643957 0.892747
vt 0.690042 0.907244
vt 0.645062 0.886774
vt 0.693078 0.892002
vt 0.644983 0.880703
vt 0.693078 0.876463
vt 0.643721 0.874769
vt 0.690043 0.861227
vt 0.641328 0.869200
vt 0.684090 0.846882
vt 0.637895 0.864211
vt 0.675452 0.833983
vt 0.633555 0.859993
vt 0.664462 0.823025
vt 0.628478 0.856711
vt 0.651547 0.814431
vt 0.622860 0.854489
vt 0.637207 0.808531
vt 0.616917 0.853416
vt 0.621995 0.805550
vt 0.610881 0.853531
vt 0.606500 0.805600
vt 0.604985 0.854834
vt 0.591320 0.808674
vt 0.599458 0.857275
vt 0.577036 0.814648
vt 0.594514 0.860763
vt 0.564195 0.823286
vt 0.590349 0.865167
vt 0.553282 0.834247
vt 0.587004 0.870262
vt 0.544701 0.847104
vt 0.584719 0.875898
vt 0.538772 0.861384
vt 0.583580 0.881858
vt 0.535728 0.876544
vt 0.583614 0.887899
vt 0.535690 0.892007
vt 0.584839 0.893807
vt 0.538662 0.907186
vt 0.587203 0.899354
vt 0.544538 0.921501
vt 0.590615 0.904324
vt 0.553100 0.934398
vt 0.594940 0.908527
vt 0.564022 0.945378
vt 0.600012 0.911799
vt 0.576886 0.954017
vt 0.605633 0.914015
vt 0.591197 0.959978
vt 0.480770 0.665401
vt 0.475789 0.670382
vt 0.469932 0.674296
vt 0.463424 0.676992
vt 0.456515 0.678366
vt 0.449470 0.678366
vt 0.442561 0.676992
vt 0.436053 0.674296
vt 0.430196 0.670382
vt 0.425215 0.665401
vt 0.421301 0.659544
vt 0.418605 0.653036
vt 0.417231 0.646127
vt 0.417231 0.639082
vt 0.418605 0.632173
vt 0.421301 0.625665
vt 0.425215 0.619807
vt 0.430196 0.614826
vt 0.436053 0.610913
vt 0.442561 0.608217
vt 0.449470 0.606842
vt 0.456515 0.606842
vt 0.463424 0.608217
vt 0.469932 0.610913
vt 0.475789 0.614826
vt 0.480771 0.619807
vt 0.484684 0.625665
vt 0.487380 0.632173
vt 0.488754 0.639082
vt 0.488754 0.646126
vt 0.487380 0.653035
vt 0.484684 0.659544
vt 0.611589 0.915086
vt 0.606405 0.963030
vt 0.781424 0.396177
vt 0.819898 0.396178
vt 0.857632 0.403683
vt 0.893178 0.418407
vt 0.925167 0.439782
vt 0.952372 0.466987
vt 0.973747 0.498976
vt 0.988471 0.534522
vt 0.995977 0.572256
vt 0.995977 0.610730
vt 0.988471 0.648464
vt 0.973748 0.684010
vt 0.952373 0.716000
vt 0.925167 0.743205
vt 0.893177 0.764580
vt 0.857632 0.779303
vt 0.819897 0.786809
vt 0.781423 0.786809
vt 0.743688 0.779303
vt 0.708143 0.764579
vt 0.676153 0.743204
vt 0.648948 0.715999
vt 0.627573 0.684009
vt 0.612850 0.648464
vt 0.605344 0.610729
vt 0.605344 0.572255
vt 0.612850 0.534521
vt 0.627574 0.498976
vt 0.648949 0.466986
vt 0.676154 0.439781
vt 0.708144 0.418406
vt 0.743690 0.403683
vt 0.123579 0.381674
vt 0.185289 0.269888
vt 0.196098 0.274053
vt 0.157433 0.395861
vt 0.093178 0.361155
vt 0.175527 0.263678
vt 0.067395 0.335110
vt 0.167194 0.255662
vt 0.047208 0.304556
vt 0.160616 0.246147
vt 0.033370 0.270677
vt 0.156056 0.235496
vt 0.026377 0.234776
vt 0.153706 0.224117
vt 0.026456 0.198217
vt 0.153674 0.212456
vt 0.033576 0.162361
vt 0.155878 0.200857
vt 0.047476 0.128523
vt 0.159811 0.189847
vt 0.067679 0.097998
vt 0.165838 0.179884
vt 0.093448 0.071964
vt 0.173707 0.171349
vt 0.123818 0.051441
vt 0.183098 0.164563
vt 0.157634 0.037235
vt 0.193643 0.159782
vt 0.193598 0.029911
vt 0.204927 0.157183
vt 0.230325 0.029765
vt 0.216513 0.156864
vt 0.266395 0.036815
vt 0.227949 0.158836
vt 0.300410 0.050797
vt 0.238791 0.163024
vt 0.331051 0.071178
vt 0.248617 0.169266
vt 0.357127 0.097174
vt 0.257047 0.177324
vt 0.377627 0.127782
vt 0.263751 0.186889
vt 0.391753 0.161821
vt 0.268469 0.197590
vt 0.398956 0.197977
vt 0.271015 0.209018
vt 0.398956 0.234850
vt 0.271289 0.220731
vt 0.391751 0.271016
vt 0.269281 0.232279
vt 0.377621 0.305075
vt 0.265067 0.243216
vt 0.357111 0.335711
vt 0.258810 0.253120
vt 0.331019 0.361741
vt 0.250753 0.261613
vt 0.300355 0.382159
vt 0.241207 0.268367
vt 0.266310 0.396180
vt 0.230542 0.273125
vt 0.230205 0.403268
vt 0.219172 0.275705
vt 0.193438 0.403156
vt 0.207536 0.276010
vt 0.896927 0.373042
vt 0.846452 0.276280
vt 0.860692 0.266396
vt 0.929128 0.351334
vt 0.861075 0.388032
vt 0.830523 0.283165
vt 0.822955 0.395718
vt 0.813522 0.286781
vt 0.784038 0.395802
vt 0.796109 0.286983
vt 0.745821 0.388272
vt 0.778946 0.283781
vt 0.709779 0.373407
vt 0.762696 0.277300
vt 0.677311 0.351772
vt 0.748006 0.267765
vt 0.649677 0.324194
vt 0.735443 0.255540
vt 0.627951 0.291736
vt 0.725493 0.241096
vt 0.612979 0.255648
vt 0.718540 0.224988
vt 0.605344 0.217325
vt 0.714853 0.207835
vt 0.605344 0.178250
vt 0.714574 0.190299
vt 0.612980 0.139937
vt 0.717711 0.173055
vt 0.627956 0.103870
vt 0.724142 0.156768
vt 0.649688 0.071446
vt 0.733614 0.142065
vt 0.677330 0.043922
vt 0.745760 0.129512
vt 0.709804 0.022362
vt 0.760106 0.119591
vt 0.745842 0.007596
vt 0.776094 0.112684
vt 0.784039 0.000188
vt 0.793105 0.109054
vt 0.822907 0.000409
vt 0.810477 0.108842
vt 0.860941 0.008230
vt 0.827524 0.112042
vt 0.896674 0.023324
vt 0.843597 0.118551
vt 0.928745 0.045083
vt 0.858068 0.128120
vt 0.955952 0.072640
vt 0.870371 0.140395
vt 0.977306 0.104921
vt 0.880033 0.154924
vt 0.992058 0.140698
vt 0.886714 0.171177
vt 0.999670 0.178674
vt 0.890565 0.188368
vt 0.999812 0.217424
vt 0.891035 0.205902
vt 0.992448 0.255478
vt 0.888172 0.223054
vt 0.977812 0.291385
vt 0.881971 0.239261
vt 0.956437 0.323757
vt 0.872688 0.253895
vt 0.142530 0.866275
vt 0.136018 0.793821
vt 0.146950 0.791469
vt 0.167537 0.861263
vt 0.117027 0.866300
vt 0.124840 0.793971
vt 0.092011 0.861338
vt 0.113852 0.791912
vt 0.068440 0.851586
vt 0.103479 0.787721
vt 0.047216 0.837412
vt 0.094092 0.781569
vt 0.029156 0.819357
vt 0.086071 0.773692
vt 0.014959 0.798111
vt 0.079724 0.764393
vt 0.005176 0.774492
vt 0.075308 0.754027
vt 0.000188 0.749409
vt 0.072994 0.742992
vt 0.000188 0.723828
vt 0.072871 0.731711
vt 0.005178 0.698736
vt 0.074931 0.720618
vt 0.014969 0.675099
vt 0.079108 0.710141
vt 0.029182 0.653831
vt 0.085242 0.700682
vt 0.047267 0.635752
vt 0.093095 0.692604
vt 0.068526 0.621558
vt 0.102353 0.686210
vt 0.092137 0.611797
vt 0.112670 0.681754
vt 0.117186 0.606842
vt 0.123646 0.679404
vt 0.142704 0.606877
vt 0.134836 0.679232
vt 0.167711 0.611897
vt 0.145826 0.681266
vt 0.191245 0.621706
vt 0.156196 0.685429
vt 0.212403 0.635924
vt 0.165545 0.691560
vt 0.230374 0.653999
vt 0.173517 0.699422
vt 0.244472 0.675233
vt 0.179796 0.708712
vt 0.254164 0.698806
vt 0.184139 0.719074
vt 0.259092 0.723813
vt 0.186374 0.730113
vt 0.259074 0.749306
vt 0.186449 0.741406
vt 0.254113 0.774319
vt 0.184384 0.752519
vt 0.244388 0.797903
vt 0.180259 0.763022
vt 0.230260 0.819148
vt 0.174193 0.772504
vt 0.212263 0.837232
vt 0.166414 0.780603
vt 0.191084 0.851455
vt 0.157215 0.787006
vn 0.9916 -0.0127 -0.1285
vn 0.9916 -0.0375 -0.1236
vn 0.9916 -0.0609 -0.1139
vn 0.9916 -0.0819 -0.0998
vn 0.9916 -0.0998 -0.0819
vn 0.9916 -0.1139 -0.0609
vn 0.9916 -0.1236 -0.0375
vn 0.9916 -0.1285 -0.0127
vn 0.9916 -0.1285 0.0127
vn 0.9916 -0.1236 0.0375
vn 0.9916 -0.1139 0.0609
vn 0.9916 -0.0998 0.0819
vn 0.9916 -0.0819 0.0998
vn 0.9916 -0.0609 0.1139
vn 0.9916 -0.0375 0.1236
vn 0.9916 -0.0127 0.1285
vn 0.9916 0.0127 0.1285
vn 0.9916 0.0375 0.1236
vn 0.9916 0.0609 0.1139
vn 0.9916 0.0819 0.0998
vn 0.9916 0.0998 0.0819
vn 0.9916 0.1139 0.0609
vn 0.9916 0.1236 0.0375
vn 0.9916 0.1285 0.0127
vn 0.9916 0.1285 -0.0127
vn 0.9916 0.1236 -0.0375
vn 0.9916 0.1139 -0.0609
vn 0.9916 0.0998 -0.0819
vn 0.9916 0.0819 -0.0998
vn 0.9916 0.0609 -0.1139
vn 1.0000 0.0000 0.0000
vn 0.9916 0.0375 -0.1236
vn 0.9916 0.0127 -0.1285
vn -1.0000 0.0000 0.0000
vn 0.9265 0.0369 -0.3746
vn 0.9265 0.1093 -0.3602
vn 0.9265 0.1774 -0.3319
vn 0.9265 0.2388 -0.2909
vn 0.9265 0.2909 -0.2388
vn 0.9265 0.3319 -0.1774
vn 0.9265 0.3602 -0.1093
vn 0.9265 0.3746 -0.0369
vn 0.9265 0.3746 0.0369
vn 0.9265 0.3602 0.1093
vn 0.9265 0.3319 0.1774
vn 0.9265 0.2909 0.2388
vn 0.9265 0.2388 0.2909
vn 0.9265 0.1774 0.3319
vn 0.9265 0.1093 0.3602
vn 0.9265 0.0369 0.3746
vn 0.9265 -0.0369 0.3746
vn 0.9265 -0.1093 0.3602
vn 0.9265 -0.1774 0.3319
vn 0.9265 -0.2388 0.2909
vn 0.9265 -0.2909 0.2388
vn 0.9265 -0.3319 0.1774
vn 0.9265 -0.3602 0.1093
vn 0.9265 -0.3746 0.0369
vn 0.9265 -0.3746 -0.0369
vn 0.9265 -0.3602 -0.1093
vn 0.9265 -0.3319 -0.1774
vn 0.9265 -0.2909 -0.2388
vn 0.9265 -0.2388 -0.2909
vn 0.9265 -0.1774 -0.3319
vn 0.9265 -0.1093 -0.3602
vn 0.9265 -0.0369 -0.3746
vn 0.9747 0.0219 -0.2224
vn 0.9747 0.0649 -0.2139
vn 0.9747 0.1054 -0.1971
vn 0.9747 0.1418 -0.1728
vn 0.9747 0.1728 -0.1418
vn 0.9747 0.1971 -0.1054
vn 0.9747 0.2139 -0.0649
vn 0.9747 0.2224 -0.0219
vn 0.9747 0.2224 0.0219
vn 0.9747 0.2139 0.0649
vn 0.9747 0.1971 0.1054
vn 0.9747 0.1728 0.1418
vn 0.9747 0.1418 0.1728
vn 0.9747 0.1054 0.1971
vn 0.9747 0.0649 0.2139
vn 0.9747 0.0219 0.2224
vn 0.9747 -0.0219 0.2224
vn 0.9747 -0.0649 0.2139
vn 0.9747 -0.1054 0.1971
vn 0.9747 -0.1418 0.1728
vn 0.9747 -0.1728 0.1418
vn 0.9747 -0.1971 0.1054
vn 0.9747 -0.2139 0.0649
vn 0.9747 -0.2224 0.0219
vn 0.9747 -0.2224 -0.0219
vn 0.9747 -0.2139 -0.0649
vn 0.9747 -0.1971 -0.1054
vn 0.9747 -0.1728 -0.1418
vn 0.9747 -0.1418 -0.1728
vn 0.9747 -0.1054 -0.1971
vn 0.9747 -0.0649 -0.2139
vn 0.9747 -0.0219 -0.2224
usemtl None
s 1
f 1/1/1 2/2/1 3/3/1 4/4/1
f 4/4/2 3/3/2 5/5/2 6/6/2
f 6/6/3 5/5/3 7/7/3 8/8/3
f 8/8/4 7/7/4 9/9/4 10/10/4
f 10/10/5 9/9/5 11/11/5 12/12/5
f 12/12/6 11/11/6 13/13/6 14/14/6
f 14/14/7 13/13/7 15/15/7 16/16/7
f 16/16/8 15/15/8 17/17/8 18/18/8
f 18/18/9 17/17/9 19/19/9 20/20/9
f 20/20/10 19/19/10 21/21/10 22/22/10
f 22/22/11 21/21/11 23/23/11 24/24/11
f 24/24/12 23/23/12 25/25/12 26/26/12
f 26/26/13 25/25/13 27/27/13 28/28/13
f 28/28/14 27/27/14 29/29/14 30/30/14
f 30/30/15 29/29/15 31/31/15 32/32/15
f 32/32/16 31/31/16 33/33/16 34/34/16
f 34/34/17 33/33/17 35/35/17 36/36/17
f 36/36/18 35/35/18 37/37/18 38/38/18
f 38/38/19 37/37/19 39/39/19 40/40/19
f 40/40/20 39/39/20 41/41/20 42/42/20
f 42/42/21 41/41/21 43/43/21 44/44/21
f 44/44/22 43/43/22 45/45/22 46/46/22
f 46/46/23 45/45/23 47/47/23 48/48/23
f 48/48/24 47/47/24 49/49/24 50/50/24
f 50/50/25 49/49/25 51/51/25 52/52/25
f 52/52/26 51/51/26 53/53/26 54/54/26
f 54/54/27 53/53/27 55/55/27 56/56/27
f 56/56/28 55/55/28 57/57/28 58/58/28
f 58/58/29 57/57/29 59/59/29 60/60/29
f 60/60/30 59/59/30 61/61/30 62/62/30
f 3/63/31 2/64/31 63/65/31 61/66/31 59/67/31 57/68/31 55/69/31 53/70/31 51/71/31 49/72/31 47/73/31 45/74/31 43/75/31 41/76/31 39/77/31 37/78/31 35/79/31 33/80/31 31/81/31 29/82/31 27/83/31 25/84/31 23/85/31 21/86/31 19/87/31 17/88/31 15/89/31 13/90/31 11/91/31 9/92/31 7/93/31 5/94/31
f 62/62/32 61/61/32 63/95/32 64/96/32
f 64/96/33 63/95/33 2/2/33 1/1/33
f 65/97/34 66/98/34 67/99/34 68/100/34 69/101/34 70/102/34 71/103/34 72/104/34 73/105/34 74/106/34 75/107/34 76/108/34 77/109/34 78/110/34 79/111/34 80/112/34 81/113/34 82/114/34 83/115/34 84/116/34 85/117/34 86/118/34 87/119/34 88/120/34 89/121/34 90/122/34 91/123/34 92/124/34 93/125/34 94/126/34 95/127/34 96/128/34
f 96/129/35 97/130/35 98/131/35 65/132/35
f 95/133/36 99/134/36 97/130/36 96/129/36
f 94/135/37 100/136/37 99/134/37 95/133/37
f 93/137/38 101/138/38 100/136/38 94/135/38
f 92/139/39 102/140/39 101/138/39 93/137/39
f 91/141/40 103/142/40 102/140/40 92/139/40
f 90/143/41 104/144/41 103/142/41 91/141/41
f 89/145/42 105/146/42 104/144/42 90/143/42
f 88/147/43 106/148/43 105/146/43 89/145/43
f 87/149/44 107/150/44 106/148/44 88/147/44
f 86/151/45 108/152/45 107/150/45 87/149/45
f 85/153/46 109/154/46 108/152/46 86/151/46
f 84/155/47 110/156/47 109/154/47 85/153/47
f 83/157/48 111/158/48 110/156/48 84/155/48
f 82/159/49 112/160/49 111/158/49 83/157/49
f 81/161/50 113/162/50 112/160/50 82/159/50
f 80/163/51 114/164/51 113/162/51 81/161/51
f 79/165/52 115/166/52 114/164/52 80/163/52
f 78/167/53 116/168/53 115/166/53 79/165/53
f 77/169/54 117/170/54 116/168/54 78/167/54
f 76/171/55 118/172/55 117/170/55 77/169/55
f 75/173/56 119/174/56 118/172/56 76/171/56
f 74/175/57 120/176/57 119/174/57 75/173/57
f 73/177/58 121/178/58 120/176/58 74/175/58
f 72/179/59 122/180/59 121/178/59 73/177/59
f 71/181/60 123/182/60 122/180/60 72/179/60
f 70/183/61 124/184/61 123/182/61 71/181/61
f 69/185/62 125/186/62 124/184/62 70/183/62
f 68/187/63 126/188/63 125/186/63 69/185/63
f 67/189/64 127/190/64 126/188/64 68/187/64
f 66/191/65 128/192/65 127/190/65 67/189/65
f 65/132/66 98/131/66 128/192/66 66/191/66
f 97/193/67 129/194/67 130/195/67 98/196/67
f 99/197/68 131/198/68 129/194/68 97/193/68
f 100/199/69 132/200/69 131/198/69 99/197/69
f 101/201/70 133/202/70 132/200/70 100/199/70
f 102/203/71 134/204/71 133/202/71 101/201/71
f 103/205/72 135/206/72 134/204/72 102/203/72
f 104/207/73 136/208/73 135/206/73 103/205/73
f 105/209/74 137/210/74 136/208/74 104/207/74
f 106/211/75 138/212/75 137/210/75 105/209/75
f 107/213/76 139/214/76 138/212/76 106/211/76
f 108/215/77 140/216/77 139/214/77 107/213/77
f 109/217/78 141/218/78 140/216/78 108/215/78
f 110/219/79 142/220/79 141/218/79 109/217/79
f 111/221/80 143/222/80 142/220/80 110/219/80
f 112/223/81 144/224/81 143/222/81 111/221/81
f 113/225/82 145/226/82 144/224/82 112/223/82
f 114/227/83 146/228/83 145/226/83 113/225/83
f 115/229/84 147/230/84 146/228/84 114/227/84
f 116/231/85 148/232/85 147/230/85 115/229/85
f 117/233/86 149/234/86 148/232/86 116/231/86
f 118/235/87 150/236/87 149/234/87 117/233/87
f 119/237/88 151/238/88 150/236/88 118/235/88
f 120/239/89 152/240/89 151/238/89 119/237/89
f 121/241/90 153/242/90 152/240/90 120/239/90
f 122/243/91 154/244/91 153/242/91 121/241/91
f 123/245/92 155/246/92 154/244/92 122/243/92
f 124/247/93 156/248/93 155/246/93 123/245/93
f 125/249/94 157/250/94 156/248/94 124/247/94
f 126/251/95 158/252/95 157/250/95 125/249/95
f 127/253/96 159/254/96 158/252/96 126/251/96
f 128/255/97 160/256/97 159/254/97 127/253/97
f 98/196/98 130/195/98 160/256/98 128/255/98
f 129/257/33 64/258/33 1/259/33 130/260/33
f 131/261/32 62/262/32 64/258/32 129/257/32
f 132/263/30 60/264/30 62/262/30 131/261/30
f 133/265/29 58/266/29 60/264/29 132/263/29
f 134/267/28 56/268/28 58/266/28 133/265/28
f 135/269/27 54/270/27 56/268/27 134/267/27
f 136/271/26 52/272/26 54/270/26 135/269/26
f 137/273/25 50/274/25 52/272/25 136/271/25
f 138/275/24 48/276/24 50/274/24 137/273/24
f 139/277/23 46/278/23 48/276/23 138/275/23
f 140/279/22 44/280/22 46/278/22 139/277/22
f 141/281/21 42/282/21 44/280/21 140/279/21
f 142/283/20 40/284/20 42/282/20 141/281/20
f 143/285/19 38/286/19 40/284/19 142/283/19
f 144/287/18 36/288/18 38/286/18 143/285/18
f 145/289/17 34/290/17 36/288/17 144/287/17
f 146/291/16 32/292/16 34/290/16 145/289/16
f 147/293/15 30/294/15 32/292/15 146/291/15
f 148/295/14 28/296/14 30/294/14 147/293/14
f 149/297/13 26/298/13 28/296/13 148/295/13
f 150/299/12 24/300/12 26/298/12 149/297/12
f 151/301/11 22/302/11 24/300/11 150/299/11
f 152/303/10 20/304/10 22/302/10 151/301/10
f 153/305/9 18/306/9 20/304/9 152/303/9
f 154/307/8 16/308/8 18/306/8 153/305/8
f 155/309/7 14/310/7 16/308/7 154/307/7
f 156/311/6 12/312/6 14/310/6 155/309/6
f 157/313/5 10/314/5 12/312/5 156/311/5
f 158/315/4 8/316/4 10/314/4 157/313/4
f 159/317/3 6/318/3 8/316/3 158/315/3
f 160/319/2 4/320/2 6/318/2 159/317/2
f 130/260/1 1/259/1 4/320/1 160/319/1
